<mxfile host="app.diagrams.net" modified="2023-08-28T05:56:51.978Z" agent="Mozilla/5.0 (Macintosh; Intel Mac OS X 10_15_7) AppleWebKit/537.36 (KHTML, like Gecko) Chrome/114.0.0.0 Safari/537.36" etag="SQ4c6_xW9cC0Naw6HZjV" version="21.4.0" type="device">
  <diagram name="第 1 页" id="9kzzinJ-MbL4GD9odWv7">
    <mxGraphModel dx="954" dy="559" grid="1" gridSize="10" guides="1" tooltips="1" connect="1" arrows="1" fold="1" page="1" pageScale="1" pageWidth="827" pageHeight="1169" math="0" shadow="0">
      <root>
        <mxCell id="0" />
        <mxCell id="1" parent="0" />
        <mxCell id="LFw5_-sJQKZeijgqrLep-1" value="SIP 终端&lt;br&gt;127.0.0.3" style="shape=umlLifeline;perimeter=lifelinePerimeter;whiteSpace=wrap;html=1;container=1;dropTarget=0;collapsible=0;recursiveResize=0;outlineConnect=0;portConstraint=eastwest;newEdgeStyle={&quot;edgeStyle&quot;:&quot;elbowEdgeStyle&quot;,&quot;elbow&quot;:&quot;vertical&quot;,&quot;curved&quot;:0,&quot;rounded&quot;:0};fillColor=#f9f7ed;strokeColor=#36393d;" vertex="1" parent="1">
          <mxGeometry x="470" y="50" width="120" height="600" as="geometry" />
        </mxCell>
        <mxCell id="LFw5_-sJQKZeijgqrLep-2" value="SIP 服务器&lt;br&gt;&amp;nbsp;127.0.0.2" style="shape=umlLifeline;perimeter=lifelinePerimeter;whiteSpace=wrap;html=1;container=1;dropTarget=0;collapsible=0;recursiveResize=0;outlineConnect=0;portConstraint=eastwest;newEdgeStyle={&quot;edgeStyle&quot;:&quot;elbowEdgeStyle&quot;,&quot;elbow&quot;:&quot;vertical&quot;,&quot;curved&quot;:0,&quot;rounded&quot;:0};fillColor=#ffcccc;strokeColor=#36393d;" vertex="1" parent="1">
          <mxGeometry x="280" y="50" width="130" height="620" as="geometry" />
        </mxCell>
        <mxCell id="LFw5_-sJQKZeijgqrLep-3" value="FreeSWITCH&lt;br&gt;&amp;nbsp;127.0.0.1" style="shape=umlLifeline;perimeter=lifelinePerimeter;whiteSpace=wrap;html=1;container=1;dropTarget=0;collapsible=0;recursiveResize=0;outlineConnect=0;portConstraint=eastwest;newEdgeStyle={&quot;edgeStyle&quot;:&quot;elbowEdgeStyle&quot;,&quot;elbow&quot;:&quot;vertical&quot;,&quot;curved&quot;:0,&quot;rounded&quot;:0};fillColor=#e1d5e7;strokeColor=#9673a6;" vertex="1" parent="1">
          <mxGeometry x="100" y="50" width="120" height="610" as="geometry" />
        </mxCell>
        <mxCell id="LFw5_-sJQKZeijgqrLep-61" value="&lt;font color=&quot;#3333ff&quot;&gt;INVITE&amp;nbsp;&lt;font style=&quot;font-size: 8px;&quot;&gt;sip:9@127.0.0.2:5080&lt;/font&gt;&lt;/font&gt;&lt;br&gt;Via:127.0.0.1" style="html=1;whiteSpace=wrap;align=left;fillColor=#dae8fc;strokeColor=#6c8ebf;" vertex="1" parent="1">
          <mxGeometry x="170" y="120" width="170" height="30" as="geometry" />
        </mxCell>
        <mxCell id="LFw5_-sJQKZeijgqrLep-63" value="&lt;font color=&quot;#3333ff&quot;&gt;INVITE &lt;/font&gt;&lt;font color=&quot;#ff3333&quot;&gt;sip:9@127.0.0.3:5060&lt;/font&gt;&lt;br&gt;&lt;font color=&quot;#ff3333&quot;&gt;Record-Route:127.0.0.2&lt;br&gt;Via:127.0.0.2&lt;/font&gt;&lt;br&gt;Via:127.0.0.1" style="html=1;whiteSpace=wrap;align=left;fillColor=#dae8fc;strokeColor=#6c8ebf;" vertex="1" parent="1">
          <mxGeometry x="355.25" y="180" width="170" height="60" as="geometry" />
        </mxCell>
        <mxCell id="LFw5_-sJQKZeijgqrLep-64" value="&lt;font color=&quot;#009900&quot;&gt;180&lt;/font&gt;&lt;br&gt;Via:127.0.0.2&lt;br style=&quot;border-color: var(--border-color);&quot;&gt;Via:127.0.0.1&lt;br&gt;Record-Route:127.0.0.2" style="html=1;whiteSpace=wrap;align=left;fillColor=#d5e8d4;strokeColor=#82b366;" vertex="1" parent="1">
          <mxGeometry x="370" y="340" width="140" height="60" as="geometry" />
        </mxCell>
        <mxCell id="LFw5_-sJQKZeijgqrLep-66" value="&lt;font color=&quot;#009900&quot;&gt;180&lt;/font&gt;&lt;br&gt;&lt;strike&gt;&lt;font color=&quot;#ff3333&quot;&gt;Via:127.0.0.2&lt;/font&gt;&lt;/strike&gt;&lt;br style=&quot;border-color: var(--border-color);&quot;&gt;Via:127.0.0.1&lt;br&gt;Record-Route:127.0.0.2" style="html=1;whiteSpace=wrap;align=left;fillColor=#d5e8d4;strokeColor=#82b366;" vertex="1" parent="1">
          <mxGeometry x="180" y="350" width="140" height="70" as="geometry" />
        </mxCell>
        <mxCell id="LFw5_-sJQKZeijgqrLep-67" value="&lt;font color=&quot;#009900&quot;&gt;200&lt;/font&gt;&lt;br&gt;Via:127.0.0.2&lt;br style=&quot;border-color: var(--border-color);&quot;&gt;Via:127.0.0.1&lt;br&gt;&lt;font color=&quot;#ff3333&quot;&gt;Contact:sip:9@127.0.0.3:5060&lt;/font&gt;&lt;br&gt;Record-Route:127.0.0.2" style="html=1;whiteSpace=wrap;align=left;fillColor=#d5e8d4;strokeColor=#82b366;" vertex="1" parent="1">
          <mxGeometry x="350" y="440" width="170" height="70" as="geometry" />
        </mxCell>
        <mxCell id="LFw5_-sJQKZeijgqrLep-68" value="&lt;font color=&quot;#009900&quot;&gt;200&lt;/font&gt;&lt;br&gt;&lt;strike&gt;&lt;font color=&quot;#ff3333&quot;&gt;Via:127.0.0.2&lt;/font&gt;&lt;/strike&gt;&lt;br style=&quot;border-color: var(--border-color);&quot;&gt;Via:127.0.0.1&lt;br&gt;&lt;font color=&quot;#ff3333&quot;&gt;Contact:sip:9@127.0.0.3:5060&lt;/font&gt;&lt;br&gt;Record-Route:127.0.0.2" style="html=1;whiteSpace=wrap;align=left;fillColor=#d5e8d4;strokeColor=#82b366;" vertex="1" parent="1">
          <mxGeometry x="170" y="460" width="170" height="70" as="geometry" />
        </mxCell>
        <mxCell id="LFw5_-sJQKZeijgqrLep-70" value="&lt;font color=&quot;#009900&quot;&gt;100&lt;/font&gt;&lt;br&gt;Via:127.0.0.1" style="html=1;whiteSpace=wrap;align=left;fillColor=#d5e8d4;strokeColor=#82b366;" vertex="1" parent="1">
          <mxGeometry x="180" y="180" width="140" height="30" as="geometry" />
        </mxCell>
        <mxCell id="LFw5_-sJQKZeijgqrLep-71" value="&lt;font color=&quot;#009900&quot;&gt;100&lt;/font&gt;&lt;br&gt;Via:127.0.0.2&lt;br&gt;Via:127.0.0.1" style="html=1;whiteSpace=wrap;align=left;fillColor=#d5e8d4;strokeColor=#82b366;" vertex="1" parent="1">
          <mxGeometry x="370" y="270" width="140" height="45" as="geometry" />
        </mxCell>
        <mxCell id="LFw5_-sJQKZeijgqrLep-72" value="&lt;font color=&quot;#3333ff&quot;&gt;ACK&amp;nbsp;&lt;/font&gt;&lt;font color=&quot;#ff3333&quot;&gt;sip:9@127.0.0.3:5060&lt;/font&gt;&lt;br style=&quot;border-color: var(--border-color);&quot;&gt;Via:127.0.0.1&lt;br&gt;&lt;font color=&quot;#ff3333&quot;&gt;Route:127.0.0.2&lt;/font&gt;" style="html=1;whiteSpace=wrap;align=left;fillColor=#dae8fc;strokeColor=#6c8ebf;" vertex="1" parent="1">
          <mxGeometry x="170" y="560" width="160" height="50" as="geometry" />
        </mxCell>
        <mxCell id="LFw5_-sJQKZeijgqrLep-81" value="" style="html=1;verticalAlign=bottom;startArrow=circle;startFill=1;endArrow=open;startSize=6;endSize=8;edgeStyle=elbowEdgeStyle;elbow=vertical;curved=0;rounded=0;" edge="1" parent="1" target="LFw5_-sJQKZeijgqrLep-2">
          <mxGeometry width="80" relative="1" as="geometry">
            <mxPoint x="160" y="170" as="sourcePoint" />
            <mxPoint x="240" y="170" as="targetPoint" />
            <Array as="points">
              <mxPoint x="240" y="160" />
              <mxPoint x="250" y="160" />
            </Array>
          </mxGeometry>
        </mxCell>
        <mxCell id="LFw5_-sJQKZeijgqrLep-82" value="" style="html=1;verticalAlign=bottom;startArrow=circle;startFill=1;endArrow=open;startSize=6;endSize=8;edgeStyle=elbowEdgeStyle;elbow=vertical;curved=0;rounded=0;" edge="1" parent="1" source="LFw5_-sJQKZeijgqrLep-2" target="LFw5_-sJQKZeijgqrLep-3">
          <mxGeometry width="80" relative="1" as="geometry">
            <mxPoint x="270" y="250" as="sourcePoint" />
            <mxPoint x="470" y="250" as="targetPoint" />
            <Array as="points">
              <mxPoint x="270" y="220" />
              <mxPoint x="250" y="230" />
            </Array>
          </mxGeometry>
        </mxCell>
        <mxCell id="LFw5_-sJQKZeijgqrLep-83" value="" style="html=1;verticalAlign=bottom;startArrow=circle;startFill=1;endArrow=open;startSize=6;endSize=8;edgeStyle=elbowEdgeStyle;elbow=vertical;curved=0;rounded=0;" edge="1" parent="1" target="LFw5_-sJQKZeijgqrLep-1">
          <mxGeometry width="80" relative="1" as="geometry">
            <mxPoint x="340" y="260" as="sourcePoint" />
            <mxPoint x="420" y="260" as="targetPoint" />
            <Array as="points">
              <mxPoint x="450" y="250" />
            </Array>
          </mxGeometry>
        </mxCell>
        <mxCell id="LFw5_-sJQKZeijgqrLep-84" value="" style="html=1;verticalAlign=bottom;startArrow=circle;startFill=1;endArrow=open;startSize=6;endSize=8;edgeStyle=elbowEdgeStyle;elbow=vertical;curved=0;rounded=0;" edge="1" parent="1" source="LFw5_-sJQKZeijgqrLep-1" target="LFw5_-sJQKZeijgqrLep-2">
          <mxGeometry width="80" relative="1" as="geometry">
            <mxPoint x="470" y="410" as="sourcePoint" />
            <mxPoint x="550" y="410" as="targetPoint" />
            <Array as="points">
              <mxPoint x="440" y="320" />
              <mxPoint x="435" y="310" />
            </Array>
          </mxGeometry>
        </mxCell>
        <mxCell id="LFw5_-sJQKZeijgqrLep-85" value="" style="html=1;verticalAlign=bottom;startArrow=circle;startFill=1;endArrow=open;startSize=6;endSize=8;edgeStyle=elbowEdgeStyle;elbow=vertical;curved=0;rounded=0;" edge="1" parent="1" source="LFw5_-sJQKZeijgqrLep-1" target="LFw5_-sJQKZeijgqrLep-2">
          <mxGeometry width="80" relative="1" as="geometry">
            <mxPoint x="480" y="480" as="sourcePoint" />
            <mxPoint x="560" y="480" as="targetPoint" />
            <Array as="points">
              <mxPoint x="450" y="410" />
              <mxPoint x="440" y="430" />
            </Array>
          </mxGeometry>
        </mxCell>
        <mxCell id="LFw5_-sJQKZeijgqrLep-86" value="" style="html=1;verticalAlign=bottom;startArrow=circle;startFill=1;endArrow=open;startSize=6;endSize=8;edgeStyle=elbowEdgeStyle;elbow=vertical;curved=0;rounded=0;" edge="1" parent="1" source="LFw5_-sJQKZeijgqrLep-2" target="LFw5_-sJQKZeijgqrLep-3">
          <mxGeometry width="80" relative="1" as="geometry">
            <mxPoint x="270" y="560" as="sourcePoint" />
            <mxPoint x="350" y="560" as="targetPoint" />
            <Array as="points">
              <mxPoint x="270" y="430" />
              <mxPoint x="290" y="430" />
              <mxPoint x="260" y="450" />
              <mxPoint x="280" y="510" />
            </Array>
          </mxGeometry>
        </mxCell>
        <mxCell id="LFw5_-sJQKZeijgqrLep-87" value="" style="html=1;verticalAlign=bottom;startArrow=circle;startFill=1;endArrow=open;startSize=6;endSize=8;edgeStyle=elbowEdgeStyle;elbow=vertical;curved=0;rounded=0;" edge="1" parent="1" source="LFw5_-sJQKZeijgqrLep-1" target="LFw5_-sJQKZeijgqrLep-2">
          <mxGeometry width="80" relative="1" as="geometry">
            <mxPoint x="570" y="560" as="sourcePoint" />
            <mxPoint x="650" y="560" as="targetPoint" />
            <Array as="points">
              <mxPoint x="440" y="520" />
              <mxPoint x="430" y="540" />
            </Array>
          </mxGeometry>
        </mxCell>
        <mxCell id="LFw5_-sJQKZeijgqrLep-88" value="" style="html=1;verticalAlign=bottom;startArrow=circle;startFill=1;endArrow=open;startSize=6;endSize=8;edgeStyle=elbowEdgeStyle;elbow=vertical;curved=0;rounded=0;" edge="1" parent="1" source="LFw5_-sJQKZeijgqrLep-2" target="LFw5_-sJQKZeijgqrLep-3">
          <mxGeometry width="80" relative="1" as="geometry">
            <mxPoint x="280" y="710" as="sourcePoint" />
            <mxPoint x="360" y="710" as="targetPoint" />
            <Array as="points">
              <mxPoint x="260" y="540" />
              <mxPoint x="250" y="560" />
            </Array>
          </mxGeometry>
        </mxCell>
        <mxCell id="LFw5_-sJQKZeijgqrLep-91" value="&lt;font color=&quot;#3333ff&quot;&gt;ACK&amp;nbsp;&lt;/font&gt;&lt;font color=&quot;#ff3333&quot;&gt;sip:9@127.0.0.3:5060&lt;/font&gt;&lt;br style=&quot;border-color: var(--border-color);&quot;&gt;&lt;font color=&quot;#ff3333&quot;&gt;Via:127.0.0.2&lt;/font&gt;&lt;br&gt;Via:127.0.0.1&lt;br&gt;&lt;strike&gt;&lt;font color=&quot;#ff3333&quot;&gt;Route:127.0.0.2&lt;/font&gt;&lt;/strike&gt;" style="html=1;whiteSpace=wrap;align=left;fillColor=#dae8fc;strokeColor=#6c8ebf;" vertex="1" parent="1">
          <mxGeometry x="370.25" y="570" width="149.75" height="60" as="geometry" />
        </mxCell>
        <mxCell id="LFw5_-sJQKZeijgqrLep-92" value="" style="html=1;verticalAlign=bottom;startArrow=circle;startFill=1;endArrow=open;startSize=6;endSize=8;edgeStyle=elbowEdgeStyle;elbow=vertical;curved=0;rounded=0;" edge="1" parent="1">
          <mxGeometry width="80" relative="1" as="geometry">
            <mxPoint x="350.25" y="650" as="sourcePoint" />
            <mxPoint x="529.75" y="640" as="targetPoint" />
            <Array as="points">
              <mxPoint x="440.25" y="640" />
            </Array>
          </mxGeometry>
        </mxCell>
        <mxCell id="LFw5_-sJQKZeijgqrLep-93" value="" style="html=1;verticalAlign=bottom;startArrow=circle;startFill=1;endArrow=open;startSize=6;endSize=8;edgeStyle=elbowEdgeStyle;elbow=vertical;curved=0;rounded=0;" edge="1" parent="1">
          <mxGeometry width="80" relative="1" as="geometry">
            <mxPoint x="160.25" y="620" as="sourcePoint" />
            <mxPoint x="344.75" y="620" as="targetPoint" />
          </mxGeometry>
        </mxCell>
        <mxCell id="LFw5_-sJQKZeijgqrLep-95" value="" style="shape=curlyBracket;whiteSpace=wrap;html=1;rounded=1;labelPosition=left;verticalLabelPosition=middle;align=right;verticalAlign=middle;" vertex="1" parent="1">
          <mxGeometry x="110" y="135" width="20" height="120" as="geometry" />
        </mxCell>
        <mxCell id="LFw5_-sJQKZeijgqrLep-96" value="" style="shape=curlyBracket;whiteSpace=wrap;html=1;rounded=1;labelPosition=left;verticalLabelPosition=middle;align=right;verticalAlign=middle;" vertex="1" parent="1">
          <mxGeometry x="110" y="340" width="20" height="200" as="geometry" />
        </mxCell>
        <mxCell id="LFw5_-sJQKZeijgqrLep-98" value="1.INVITE&lt;br&gt;&amp;nbsp;转发" style="text;html=1;align=center;verticalAlign=middle;resizable=0;points=[];autosize=1;strokeColor=none;fillColor=none;" vertex="1" parent="1">
          <mxGeometry x="45" y="173" width="70" height="40" as="geometry" />
        </mxCell>
        <mxCell id="LFw5_-sJQKZeijgqrLep-99" value="2.200 &lt;br&gt;响应" style="text;html=1;align=center;verticalAlign=middle;resizable=0;points=[];autosize=1;strokeColor=none;fillColor=none;" vertex="1" parent="1">
          <mxGeometry x="55" y="413" width="50" height="40" as="geometry" />
        </mxCell>
        <mxCell id="LFw5_-sJQKZeijgqrLep-100" value="" style="shape=curlyBracket;whiteSpace=wrap;html=1;rounded=1;labelPosition=left;verticalLabelPosition=middle;align=right;verticalAlign=middle;" vertex="1" parent="1">
          <mxGeometry x="110" y="590" width="20" height="50" as="geometry" />
        </mxCell>
        <mxCell id="LFw5_-sJQKZeijgqrLep-101" value="3.ACK&amp;nbsp;&lt;br&gt;转发" style="text;html=1;align=center;verticalAlign=middle;resizable=0;points=[];autosize=1;strokeColor=none;fillColor=none;" vertex="1" parent="1">
          <mxGeometry x="50" y="593" width="60" height="40" as="geometry" />
        </mxCell>
      </root>
    </mxGraphModel>
  </diagram>
</mxfile>
